<mxfile host="app.diagrams.net" agent="Mozilla/5.0 (Windows NT 10.0; Win64; x64) AppleWebKit/537.36 (KHTML, like Gecko) Chrome/136.0.0.0 Safari/537.36 Edg/136.0.0.0" version="27.0.5">
  <diagram name="Page-1" id="HHuT0sQ4w0ih7LJ01Off">
    <mxGraphModel dx="1659" dy="932" grid="1" gridSize="10" guides="1" tooltips="1" connect="1" arrows="1" fold="1" page="1" pageScale="1" pageWidth="850" pageHeight="1100" math="0" shadow="0">
      <root>
        <mxCell id="0" />
        <mxCell id="1" parent="0" />
        <mxCell id="3xF6hZe8IZ8ENIiqlckg-4" value="&lt;p style=&quot;margin:0px;margin-top:4px;text-align:center;&quot;&gt;&lt;b&gt;Sunucu Katmanı&lt;/b&gt;&lt;/p&gt;" style="verticalAlign=top;align=left;overflow=fill;html=1;whiteSpace=wrap;" vertex="1" parent="1">
          <mxGeometry x="450" y="20" width="255" height="670" as="geometry" />
        </mxCell>
        <mxCell id="3xF6hZe8IZ8ENIiqlckg-3" value="&lt;p style=&quot;margin:0px;margin-top:4px;text-align:center;&quot;&gt;&lt;b&gt;Kullanıcı Katmanı&lt;/b&gt;&lt;/p&gt;" style="verticalAlign=top;align=left;overflow=fill;html=1;whiteSpace=wrap;" vertex="1" parent="1">
          <mxGeometry x="195" y="20" width="255" height="670" as="geometry" />
        </mxCell>
        <mxCell id="3xF6hZe8IZ8ENIiqlckg-1" value="" style="ellipse;html=1;shape=startState;fillColor=#000000;strokeColor=#ff0000;" vertex="1" parent="1">
          <mxGeometry x="307.5" y="60" width="30" height="30" as="geometry" />
        </mxCell>
        <mxCell id="3xF6hZe8IZ8ENIiqlckg-5" value="Araç İçin Rapor İste" style="rounded=1;whiteSpace=wrap;html=1;arcSize=40;fontColor=#000000;fillColor=#ffffc0;strokeColor=#ff0000;" vertex="1" parent="1">
          <mxGeometry x="262.5" y="130" width="120" height="40" as="geometry" />
        </mxCell>
        <mxCell id="3xF6hZe8IZ8ENIiqlckg-6" value="" style="edgeStyle=orthogonalEdgeStyle;html=1;verticalAlign=bottom;endArrow=open;endSize=8;strokeColor=#ff0000;rounded=0;entryX=0;entryY=0.5;entryDx=0;entryDy=0;" edge="1" source="3xF6hZe8IZ8ENIiqlckg-5" parent="1" target="3xF6hZe8IZ8ENIiqlckg-8">
          <mxGeometry relative="1" as="geometry">
            <mxPoint x="323" y="280" as="targetPoint" />
            <Array as="points">
              <mxPoint x="322" y="225" />
              <mxPoint x="518" y="225" />
            </Array>
          </mxGeometry>
        </mxCell>
        <mxCell id="3xF6hZe8IZ8ENIiqlckg-7" value="" style="edgeStyle=orthogonalEdgeStyle;html=1;verticalAlign=bottom;endArrow=open;endSize=8;strokeColor=#ff0000;rounded=0;exitX=0.5;exitY=1;exitDx=0;exitDy=0;" edge="1" parent="1" source="3xF6hZe8IZ8ENIiqlckg-1" target="3xF6hZe8IZ8ENIiqlckg-5">
          <mxGeometry relative="1" as="geometry">
            <mxPoint x="333" y="290" as="targetPoint" />
            <mxPoint x="333" y="230" as="sourcePoint" />
            <Array as="points">
              <mxPoint x="322" y="150" />
              <mxPoint x="322" y="150" />
            </Array>
          </mxGeometry>
        </mxCell>
        <mxCell id="3xF6hZe8IZ8ENIiqlckg-8" value="Araç&#39;ın raporunu database üzerinde filtrele" style="rounded=1;whiteSpace=wrap;html=1;arcSize=40;fontColor=#000000;fillColor=#ffffc0;strokeColor=#ff0000;" vertex="1" parent="1">
          <mxGeometry x="518" y="200" width="120" height="40" as="geometry" />
        </mxCell>
        <mxCell id="3xF6hZe8IZ8ENIiqlckg-9" value="" style="edgeStyle=orthogonalEdgeStyle;html=1;verticalAlign=bottom;endArrow=open;endSize=8;strokeColor=#ff0000;rounded=0;" edge="1" source="3xF6hZe8IZ8ENIiqlckg-8" parent="1">
          <mxGeometry relative="1" as="geometry">
            <mxPoint x="578" y="300" as="targetPoint" />
          </mxGeometry>
        </mxCell>
        <mxCell id="3xF6hZe8IZ8ENIiqlckg-10" value="Rapor nesnesini oluştur ve gönder" style="rounded=1;whiteSpace=wrap;html=1;arcSize=40;fontColor=#000000;fillColor=#ffffc0;strokeColor=#ff0000;" vertex="1" parent="1">
          <mxGeometry x="518" y="305" width="120" height="40" as="geometry" />
        </mxCell>
        <mxCell id="3xF6hZe8IZ8ENIiqlckg-11" value="" style="edgeStyle=orthogonalEdgeStyle;html=1;verticalAlign=bottom;endArrow=open;endSize=8;strokeColor=#ff0000;rounded=0;entryX=1;entryY=0.5;entryDx=0;entryDy=0;" edge="1" source="3xF6hZe8IZ8ENIiqlckg-10" parent="1" target="3xF6hZe8IZ8ENIiqlckg-12">
          <mxGeometry relative="1" as="geometry">
            <mxPoint x="578" y="405" as="targetPoint" />
            <Array as="points">
              <mxPoint x="578" y="400" />
            </Array>
          </mxGeometry>
        </mxCell>
        <mxCell id="3xF6hZe8IZ8ENIiqlckg-12" value="Raporu ekranda göster" style="rounded=1;whiteSpace=wrap;html=1;arcSize=40;fontColor=#000000;fillColor=#ffffc0;strokeColor=#ff0000;" vertex="1" parent="1">
          <mxGeometry x="262.5" y="380" width="120" height="40" as="geometry" />
        </mxCell>
        <mxCell id="3xF6hZe8IZ8ENIiqlckg-13" value="" style="edgeStyle=orthogonalEdgeStyle;html=1;verticalAlign=bottom;endArrow=open;endSize=8;strokeColor=#ff0000;rounded=0;" edge="1" source="3xF6hZe8IZ8ENIiqlckg-12" parent="1" target="3xF6hZe8IZ8ENIiqlckg-14">
          <mxGeometry relative="1" as="geometry">
            <mxPoint x="320" y="480" as="targetPoint" />
          </mxGeometry>
        </mxCell>
        <mxCell id="3xF6hZe8IZ8ENIiqlckg-14" value="" style="ellipse;html=1;shape=endState;fillColor=#000000;strokeColor=#ff0000;" vertex="1" parent="1">
          <mxGeometry x="308" y="510" width="30" height="30" as="geometry" />
        </mxCell>
      </root>
    </mxGraphModel>
  </diagram>
</mxfile>
